<?xml version="1.0" encoding="utf-8"?>
<!-- Generator: Adobe Illustrator 24.0.1, SVG Export Plug-In . SVG Version: 6.00 Build 0)  -->
<svg version="1.1" xmlns="http://www.w3.org/2000/svg" xmlns:xlink="http://www.w3.org/1999/xlink" x="0px" y="0px"
	 viewBox="0 0 46.6 47" style="enable-background:new 0 0 46.6 47;" xml:space="preserve">
<style type="text/css">
	.st0{display:none;}
	.st1{display:inline;fill:#E5E8EC;}
	.st2{display:inline;}
	.st3{fill:#E5E8EC;}
	.st4{fill:#9AC7F7;}
	.st5{fill:#0561FC;}
	.st6{fill:#C5E1F9;}
	.st7{fill:none;stroke:#C5E1F9;stroke-width:2;}
	.st8{fill:#7EB3FF;}
	.st9{fill:#0450CF;}
	.st10{fill:#7EB3FF;stroke:#7EB3FF;stroke-width:2;}
	.st11{fill:none;stroke:#0561FC;stroke-width:2;}
	.st12{fill:none;stroke:#7EB3FF;stroke-width:2;}
	.st13{fill:#EAF4FE;}
	.st14{fill:none;stroke:#FFFFFF;stroke-width:2;}
	.st15{fill:#FFFFFF;stroke:#FFFFFF;stroke-width:2;}
	.st16{fill:#B2D2EA;}
	.st17{fill:#0561FC;stroke:#0561FC;stroke-width:2;}
	.st18{fill:#EAF4FE;stroke:#0561FC;stroke-width:2;}
	.st19{fill:none;stroke:#282D33;stroke-width:2;}
	.st20{fill:none;stroke:#7EB3FF;stroke-width:2.0008;}
	.st21{fill:none;stroke:#EAF4FE;stroke-width:2;}
	.st22{fill:#FFFFFF;}
	.st23{fill:none;stroke:#7EB3FF;stroke-width:5;}
</style>
<g id="Background">
</g>
<g id="Square" class="st0">
	<g class="st2">
		<rect x="-0.4" y="0.1" class="st3" width="48" height="48"/>
	</g>
	<g id="Layer_4" class="st2">
	</g>
</g>
<g id="Icons">
	<g>
		<path class="st10" d="M27.2,34.8c0,0-0.1,0.1-0.1,0.1c-0.6,0.9-1.2,1.8-1.8,2.7c-0.5,0.8-1.9,1-3,0.2c-1.2-0.8-4.8-4.2-7.1-6.3
			c-2.1-2.3-5.4-6-6.2-7.2c-0.8-1.1-0.6-2.5,0.2-3c0.9-0.6,1.8-1.2,2.7-1.8c0,0,0.1-0.1,0.1-0.1c-2.3-2.8-4.4-5.7-6.3-8.6
			c-1.2,0.8-2.3,1.7-3.3,2.7c-0.5,0.5-1,1-1.4,1.6c-0.4,5.8,2.2,13.4,9.4,20.7c7.3,7.8,15.2,10.6,21,10.2c0.5-0.4,1.1-0.9,1.6-1.4
			c1-1.1,1.9-2.2,2.7-3.4C32.9,39.3,30,37.2,27.2,34.8z"/>
		<path class="st11" d="M9.8,7.2c8.2-8.3,21.5-8.3,29.7,0c8.2,8.3,8.2,21.8,0,30.1"/>
		<g>
			<polyline class="st11" points="33.6,26.1 33.6,14.1 32.6,14.1 28.6,21.1 28.6,22.1 35.6,22.1 			"/>
			<path class="st11" d="M25.6,25.1h-6v-2c0,0,6.1-3.9,6.1-6c0-0.2,0-0.3,0-0.3c0-1.5-1.2-2.7-2.7-2.7h-0.9c-1.5,0-2.7,1.2-2.7,2.7
				v1.3"/>
		</g>
	</g>
</g>
</svg>
